<?xml version="1.0" standalone="no"?>
<!DOCTYPE svg PUBLIC "-//W3C//DTD SVG 20010904//EN"
 "http://www.w3.org/TR/2001/REC-SVG-20010904/DTD/svg10.dtd">
<svg version="1.0" xmlns="http://www.w3.org/2000/svg"
 width="1024.000000pt" height="1024.000000pt" viewBox="0 0 1024.000000 1024.000000"
 preserveAspectRatio="xMidYMid meet">
<metadata>
Created by potrace 1.16, written by Peter Selinger 2001-2019
</metadata>
<g transform="translate(0.000000,1024.000000) scale(0.100000,-0.100000)"
fill="#000000" stroke="none">
<path d="M4815 9738 c-232 -26 -528 -106 -746 -203 -211 -94 -427 -228 -599
-373 -52 -44 -764 -750 -1581 -1569 -1330 -1331 -1493 -1498 -1548 -1582 -113
-170 -193 -364 -238 -571 -14 -68 -18 -129 -18 -305 1 -202 3 -229 27 -330 49
-209 121 -372 239 -545 65 -96 164 -210 182 -210 7 0 844 832 1862 1848 1431
1429 1867 1860 1926 1900 237 160 503 242 784 242 224 0 433 -50 629 -150 194
-98 202 -106 1231 -1132 l970 -968 550 550 550 550 -1115 1113 c-613 613
-1153 1144 -1200 1181 -380 302 -841 496 -1306 551 -141 16 -466 18 -599 3z"/>
<path d="M4229 6353 c-174 -175 -330 -338 -346 -363 -86 -128 -125 -253 -125
-404 0 -125 20 -215 74 -326 39 -83 50 -95 377 -423 185 -186 569 -569 854
-850 l519 -511 337 339 c338 339 338 340 385 435 55 112 76 201 76 326 0 156
-58 326 -148 435 -56 68 -1665 1659 -1677 1659 -6 0 -153 -143 -326 -317z"/>
<path d="M7855 4362 c-1666 -1665 -1859 -1855 -1944 -1911 -127 -84 -211 -125
-350 -171 -338 -113 -718 -86 -1034 71 -204 102 -181 81 -1235 1133 l-982 981
-553 -553 -552 -552 1010 -1011 c556 -556 1070 -1067 1144 -1136 411 -384 865
-606 1406 -689 151 -23 561 -26 700 -6 463 70 850 229 1215 500 98 72 336 306
1631 1601 1437 1437 1520 1522 1588 1624 115 175 187 344 233 548 20 91 23
130 23 319 0 243 -9 303 -75 501 -67 201 -176 390 -308 529 l-67 71 -1850
-1849z"/>
</g>
</svg>
